<?xml version="1.0" encoding="iso-8859-1"?>
<!-- Generator: Adobe Illustrator 19.0.0, SVG Export Plug-In . SVG Version: 6.00 Build 0)  -->
<svg version="1.1" id="Capa_1" xmlns="http://www.w3.org/2000/svg" xmlns:xlink="http://www.w3.org/1999/xlink" x="0px" y="0px"
	 viewBox="0 0 409.6 409.6" style="enable-background:new 0 0 409.6 409.6;" xml:space="preserve">
<g>
	<path style="fill:#5E9641;" d="M205,0c81.2,0,147.2,66,147.2,147.2c0,60.4-36.4,112-88.4,134.8h-0.4H146.2h-0.4
		c-52-22.8-88.4-74.4-88.4-134.8C57.8,66,123.8,0,205,0"/>
	<g>
		<path style="fill:#94C83D;" d="M146.2,282.4h117.6c12.4,0,22.4,10,22.4,22.4s-10,22.4-22.4,22.4H146.2c-12.4,0-22.4-10-22.4-22.4
			S133.8,282.4,146.2,282.4"/>
		<path style="fill:#94C83D;" d="M146.2,372.4h117.6c12.4,0,22.4-10,22.4-22.4s-10-22.4-22.4-22.4H146.2c-12.4,0-22.4,10-22.4,22.4
			S133.8,372.4,146.2,372.4"/>
	</g>
	<path style="fill:#5E9641;" d="M205,372.4h-37.2c0,20.4,16.4,37.2,37.2,37.2c20.4,0,37.2-16.4,37.2-37.2H205z"/>
	<path style="fill:#94C83D;" d="M185.8,34c9.6,53.6-28.8,78.8-49.2,110c-36,56,17.6,114.4,77.2,109.2c63.2-5.2,85.2-57.2,62.4-114
		C257.8,93.6,217.4,48,185.8,34"/>
	<path style="fill:#5E9641;" d="M185.8,34c1.2,7.6,1.6,14.4,1.2,20.8c9.6,16.4,24,45.2,31.2,78c0,1.2,0.4,2,0.8,3.2
		c3.2,16.8,4.4,34.4,2.4,52l-58-74.4c-0.4-0.4-0.8-1.2-1.6-1.6c-4.4,5.2-8.8,10.4-12.8,15.6l66.8,85.6c-4,12-10,23.2-18.4,34.4
		c-1.2,1.6-2,3.6-2,5.2c6,0.8,12.4,1.2,18.8,0.4c1.2,0,2.8-0.4,4-0.4c25.6-38,28-80,21.2-117.2l23.2-24.4c-3.6-6-7.2-11.6-11.2-17.2
		c-0.4,0.4-1.2,0.8-1.6,1.2l-16,16.8c-8-28.4-20.4-52-29.2-67.2C198.2,40.4,191.8,36.8,185.8,34"/>
</g>
<g>
</g>
<g>
</g>
<g>
</g>
<g>
</g>
<g>
</g>
<g>
</g>
<g>
</g>
<g>
</g>
<g>
</g>
<g>
</g>
<g>
</g>
<g>
</g>
<g>
</g>
<g>
</g>
<g>
</g>
</svg>
